<mxfile host="app.diagrams.net" agent="Mozilla/5.0 (Windows NT 10.0; Win64; x64) AppleWebKit/537.36 (KHTML, like Gecko) Chrome/134.0.0.0 Safari/537.36" version="26.1.1" pages="2">
  <diagram name="Page-1" id="FtJa1fgnbFhqQgO1JibB">
    <mxGraphModel dx="1970" dy="494" grid="1" gridSize="10" guides="1" tooltips="1" connect="1" arrows="1" fold="1" page="1" pageScale="1" pageWidth="850" pageHeight="1100" math="0" shadow="0">
      <root>
        <mxCell id="0" />
        <mxCell id="1" parent="0" />
        <mxCell id="k3ovCwQThVza27bVeW9s-9" style="edgeStyle=orthogonalEdgeStyle;rounded=0;orthogonalLoop=1;jettySize=auto;html=1;exitX=1;exitY=0.5;exitDx=0;exitDy=0;" parent="1" source="k3ovCwQThVza27bVeW9s-1" target="k3ovCwQThVza27bVeW9s-8" edge="1">
          <mxGeometry relative="1" as="geometry">
            <mxPoint x="400" y="80" as="sourcePoint" />
            <Array as="points" />
          </mxGeometry>
        </mxCell>
        <mxCell id="k3ovCwQThVza27bVeW9s-85" value="1" style="edgeLabel;html=1;align=center;verticalAlign=middle;resizable=0;points=[];" parent="k3ovCwQThVza27bVeW9s-9" vertex="1" connectable="0">
          <mxGeometry y="-4" relative="1" as="geometry">
            <mxPoint as="offset" />
          </mxGeometry>
        </mxCell>
        <mxCell id="k3ovCwQThVza27bVeW9s-1" value="Import" style="rounded=1;whiteSpace=wrap;html=1;fillColor=#d5e8d4;strokeColor=#82b366;" parent="1" vertex="1">
          <mxGeometry x="240" y="40" width="120" height="80" as="geometry" />
        </mxCell>
        <mxCell id="k3ovCwQThVza27bVeW9s-5" style="edgeStyle=orthogonalEdgeStyle;rounded=0;orthogonalLoop=1;jettySize=auto;html=1;" parent="1" source="k3ovCwQThVza27bVeW9s-6" target="k3ovCwQThVza27bVeW9s-1" edge="1">
          <mxGeometry relative="1" as="geometry">
            <Array as="points">
              <mxPoint x="230" y="80" />
              <mxPoint x="230" y="80" />
            </Array>
          </mxGeometry>
        </mxCell>
        <mxCell id="k3ovCwQThVza27bVeW9s-2" value="UNISA SIS" style="rounded=1;whiteSpace=wrap;html=1;fillColor=#fff2cc;strokeColor=#d6b656;" parent="1" vertex="1">
          <mxGeometry x="5" y="40" width="120" height="80" as="geometry" />
        </mxCell>
        <mxCell id="k3ovCwQThVza27bVeW9s-7" value="0 - Data Import, from UNISA SIS to&amp;nbsp; Staging Area&amp;nbsp;" style="text;html=1;align=center;verticalAlign=middle;resizable=0;points=[];autosize=1;strokeColor=none;fillColor=none;" parent="1" vertex="1">
          <mxGeometry x="-15" y="830" width="280" height="30" as="geometry" />
        </mxCell>
        <mxCell id="k3ovCwQThVza27bVeW9s-16" style="edgeStyle=orthogonalEdgeStyle;rounded=0;orthogonalLoop=1;jettySize=auto;html=1;entryX=0;entryY=0.5;entryDx=0;entryDy=0;" parent="1" source="k3ovCwQThVza27bVeW9s-8" target="k3ovCwQThVza27bVeW9s-12" edge="1">
          <mxGeometry relative="1" as="geometry">
            <mxPoint x="620" y="75" as="sourcePoint" />
          </mxGeometry>
        </mxCell>
        <mxCell id="k3ovCwQThVza27bVeW9s-86" value="2" style="edgeLabel;html=1;align=center;verticalAlign=middle;resizable=0;points=[];" parent="k3ovCwQThVza27bVeW9s-16" vertex="1" connectable="0">
          <mxGeometry x="-0.025" y="1" relative="1" as="geometry">
            <mxPoint as="offset" />
          </mxGeometry>
        </mxCell>
        <mxCell id="k3ovCwQThVza27bVeW9s-8" value="Cert Generator" style="rounded=1;whiteSpace=wrap;html=1;fillColor=#d5e8d4;strokeColor=#82b366;" parent="1" vertex="1">
          <mxGeometry x="440" y="40" width="120" height="80" as="geometry" />
        </mxCell>
        <mxCell id="k3ovCwQThVza27bVeW9s-11" value="&amp;nbsp; &amp;nbsp; 1 - MQ Listener picks up data from import staging area and generates a blockchain certificate&lt;span style=&quot;white-space: pre;&quot;&gt;&#x9;&lt;/span&gt;" style="text;html=1;align=center;verticalAlign=middle;resizable=0;points=[];autosize=1;strokeColor=none;fillColor=none;" parent="1" vertex="1">
          <mxGeometry x="-30" y="860" width="540" height="30" as="geometry" />
        </mxCell>
        <mxCell id="k3ovCwQThVza27bVeW9s-26" style="edgeStyle=orthogonalEdgeStyle;rounded=0;orthogonalLoop=1;jettySize=auto;html=1;entryX=0.5;entryY=0;entryDx=0;entryDy=0;" parent="1" source="k3ovCwQThVza27bVeW9s-12" target="k3ovCwQThVza27bVeW9s-25" edge="1">
          <mxGeometry relative="1" as="geometry" />
        </mxCell>
        <mxCell id="k3ovCwQThVza27bVeW9s-27" value="3" style="edgeLabel;html=1;align=center;verticalAlign=middle;resizable=0;points=[];" parent="k3ovCwQThVza27bVeW9s-26" vertex="1" connectable="0">
          <mxGeometry x="0.0578" y="-3" relative="1" as="geometry">
            <mxPoint as="offset" />
          </mxGeometry>
        </mxCell>
        <mxCell id="k3ovCwQThVza27bVeW9s-12" value="File Upload" style="rounded=1;whiteSpace=wrap;html=1;fillColor=#d5e8d4;strokeColor=#82b366;" parent="1" vertex="1">
          <mxGeometry x="640" y="40" width="120" height="80" as="geometry" />
        </mxCell>
        <mxCell id="k3ovCwQThVza27bVeW9s-19" value="&amp;nbsp; &amp;nbsp; 2 - File upload (via MQ )picks up byte stream of cert,.It hashes then applies security and uploads the pdf file to secure storage. ." style="text;html=1;align=center;verticalAlign=middle;resizable=0;points=[];autosize=1;strokeColor=none;fillColor=none;" parent="1" vertex="1">
          <mxGeometry x="-30" y="890" width="690" height="30" as="geometry" />
        </mxCell>
        <mxCell id="k3ovCwQThVza27bVeW9s-23" value="" style="edgeStyle=orthogonalEdgeStyle;rounded=0;orthogonalLoop=1;jettySize=auto;html=1;" parent="1" source="k3ovCwQThVza27bVeW9s-2" target="k3ovCwQThVza27bVeW9s-6" edge="1">
          <mxGeometry relative="1" as="geometry">
            <mxPoint x="160" y="75" as="sourcePoint" />
            <mxPoint x="240" y="75" as="targetPoint" />
            <Array as="points">
              <mxPoint x="170" y="80" />
              <mxPoint x="170" y="80" />
            </Array>
          </mxGeometry>
        </mxCell>
        <mxCell id="k3ovCwQThVza27bVeW9s-6" value="0" style="text;html=1;align=center;verticalAlign=middle;resizable=0;points=[];autosize=1;strokeColor=none;fillColor=none;" parent="1" vertex="1">
          <mxGeometry x="185" y="60" width="30" height="30" as="geometry" />
        </mxCell>
        <mxCell id="k3ovCwQThVza27bVeW9s-35" style="edgeStyle=orthogonalEdgeStyle;rounded=0;orthogonalLoop=1;jettySize=auto;html=1;entryX=1;entryY=0.5;entryDx=0;entryDy=0;" parent="1" source="k3ovCwQThVza27bVeW9s-24" target="k3ovCwQThVza27bVeW9s-34" edge="1">
          <mxGeometry relative="1" as="geometry" />
        </mxCell>
        <mxCell id="k3ovCwQThVza27bVeW9s-36" value="5" style="edgeLabel;html=1;align=center;verticalAlign=middle;resizable=0;points=[];" parent="k3ovCwQThVza27bVeW9s-35" vertex="1" connectable="0">
          <mxGeometry x="0.14" y="4" relative="1" as="geometry">
            <mxPoint as="offset" />
          </mxGeometry>
        </mxCell>
        <mxCell id="k3ovCwQThVza27bVeW9s-24" value="Blockchain Rest API" style="rounded=1;whiteSpace=wrap;html=1;fillColor=#d5e8d4;strokeColor=#82b366;" parent="1" vertex="1">
          <mxGeometry x="190" y="200" width="350" height="80" as="geometry" />
        </mxCell>
        <mxCell id="k3ovCwQThVza27bVeW9s-29" style="edgeStyle=orthogonalEdgeStyle;rounded=0;orthogonalLoop=1;jettySize=auto;html=1;entryX=1;entryY=0.5;entryDx=0;entryDy=0;" parent="1" source="k3ovCwQThVza27bVeW9s-25" target="k3ovCwQThVza27bVeW9s-24" edge="1">
          <mxGeometry relative="1" as="geometry" />
        </mxCell>
        <mxCell id="k3ovCwQThVza27bVeW9s-30" value="4" style="edgeLabel;html=1;align=center;verticalAlign=middle;resizable=0;points=[];" parent="k3ovCwQThVza27bVeW9s-29" vertex="1" connectable="0">
          <mxGeometry x="0.165" y="4" relative="1" as="geometry">
            <mxPoint as="offset" />
          </mxGeometry>
        </mxCell>
        <mxCell id="k3ovCwQThVza27bVeW9s-25" value="Mediator" style="rounded=1;whiteSpace=wrap;html=1;fillColor=#d5e8d4;strokeColor=#82b366;" parent="1" vertex="1">
          <mxGeometry x="640" y="200" width="120" height="80" as="geometry" />
        </mxCell>
        <mxCell id="k3ovCwQThVza27bVeW9s-28" value="&amp;nbsp; &amp;nbsp; 3 - Picks up the file and send to mediator for proper formating." style="text;html=1;align=center;verticalAlign=middle;resizable=0;points=[];autosize=1;strokeColor=none;fillColor=none;" parent="1" vertex="1">
          <mxGeometry x="-30" y="920" width="360" height="30" as="geometry" />
        </mxCell>
        <mxCell id="k3ovCwQThVza27bVeW9s-33" value="&amp;nbsp; &amp;nbsp; 4 - Sends payload with student credentials to blockchain Rest api" style="text;html=1;align=center;verticalAlign=middle;resizable=0;points=[];autosize=1;strokeColor=none;fillColor=none;" parent="1" vertex="1">
          <mxGeometry x="-30" y="950" width="370" height="30" as="geometry" />
        </mxCell>
        <mxCell id="k3ovCwQThVza27bVeW9s-34" value="Blockchain Network" style="rounded=1;whiteSpace=wrap;html=1;fillColor=#f8cecc;strokeColor=#b85450;" parent="1" vertex="1">
          <mxGeometry y="200" width="120" height="80" as="geometry" />
        </mxCell>
        <mxCell id="k3ovCwQThVza27bVeW9s-37" value="&amp;nbsp; &amp;nbsp; 5- Store the student credentials in the blockchain network" style="text;html=1;align=center;verticalAlign=middle;resizable=0;points=[];autosize=1;strokeColor=none;fillColor=none;" parent="1" vertex="1">
          <mxGeometry x="-30" y="980" width="330" height="30" as="geometry" />
        </mxCell>
        <mxCell id="k3ovCwQThVza27bVeW9s-38" value="On Prem" style="text;html=1;align=center;verticalAlign=middle;resizable=0;points=[];autosize=1;strokeColor=none;fillColor=none;" parent="1" vertex="1">
          <mxGeometry x="230" y="10" width="70" height="30" as="geometry" />
        </mxCell>
        <mxCell id="k3ovCwQThVza27bVeW9s-40" value="On Prem" style="text;html=1;align=center;verticalAlign=middle;resizable=0;points=[];autosize=1;strokeColor=none;fillColor=none;" parent="1" vertex="1">
          <mxGeometry x="440" y="10" width="70" height="30" as="geometry" />
        </mxCell>
        <mxCell id="k3ovCwQThVza27bVeW9s-41" value="On Prem" style="text;html=1;align=center;verticalAlign=middle;resizable=0;points=[];autosize=1;strokeColor=none;fillColor=none;" parent="1" vertex="1">
          <mxGeometry x="640" y="10" width="70" height="30" as="geometry" />
        </mxCell>
        <mxCell id="k3ovCwQThVza27bVeW9s-42" value="On Prem" style="text;html=1;align=center;verticalAlign=middle;resizable=0;points=[];autosize=1;strokeColor=none;fillColor=none;" parent="1" vertex="1">
          <mxGeometry x="630" y="170" width="70" height="30" as="geometry" />
        </mxCell>
        <mxCell id="k3ovCwQThVza27bVeW9s-43" value="On Prem" style="text;html=1;align=center;verticalAlign=middle;resizable=0;points=[];autosize=1;strokeColor=none;fillColor=none;" parent="1" vertex="1">
          <mxGeometry x="270" y="170" width="70" height="30" as="geometry" />
        </mxCell>
        <mxCell id="k3ovCwQThVza27bVeW9s-91" style="edgeStyle=orthogonalEdgeStyle;rounded=0;orthogonalLoop=1;jettySize=auto;html=1;entryX=0.5;entryY=1;entryDx=0;entryDy=0;" parent="1" source="k3ovCwQThVza27bVeW9s-44" target="k3ovCwQThVza27bVeW9s-82" edge="1">
          <mxGeometry relative="1" as="geometry" />
        </mxCell>
        <mxCell id="k3ovCwQThVza27bVeW9s-115" value="9" style="edgeLabel;html=1;align=center;verticalAlign=middle;resizable=0;points=[];" parent="k3ovCwQThVza27bVeW9s-91" vertex="1" connectable="0">
          <mxGeometry x="-0.0833" y="2" relative="1" as="geometry">
            <mxPoint as="offset" />
          </mxGeometry>
        </mxCell>
        <mxCell id="k3ovCwQThVza27bVeW9s-44" value="Registration/Authentication" style="rounded=1;whiteSpace=wrap;html=1;fillColor=#d5e8d4;strokeColor=#82b366;" parent="1" vertex="1">
          <mxGeometry y="468" width="760" height="70" as="geometry" />
        </mxCell>
        <mxCell id="k3ovCwQThVza27bVeW9s-89" style="edgeStyle=orthogonalEdgeStyle;rounded=0;orthogonalLoop=1;jettySize=auto;html=1;exitX=0.5;exitY=0;exitDx=0;exitDy=0;" parent="1" source="k3ovCwQThVza27bVeW9s-50" edge="1">
          <mxGeometry relative="1" as="geometry">
            <mxPoint x="65" y="540" as="targetPoint" />
          </mxGeometry>
        </mxCell>
        <mxCell id="k3ovCwQThVza27bVeW9s-109" value="6" style="edgeLabel;html=1;align=center;verticalAlign=middle;resizable=0;points=[];" parent="k3ovCwQThVza27bVeW9s-89" vertex="1" connectable="0">
          <mxGeometry x="0.2651" relative="1" as="geometry">
            <mxPoint as="offset" />
          </mxGeometry>
        </mxCell>
        <mxCell id="k3ovCwQThVza27bVeW9s-50" value="Student Portal" style="rounded=1;whiteSpace=wrap;html=1;fillColor=#d5e8d4;strokeColor=#82b366;" parent="1" vertex="1">
          <mxGeometry x="5" y="598" width="120" height="70" as="geometry" />
        </mxCell>
        <mxCell id="k3ovCwQThVza27bVeW9s-88" style="edgeStyle=orthogonalEdgeStyle;rounded=0;orthogonalLoop=1;jettySize=auto;html=1;exitX=0.5;exitY=0;exitDx=0;exitDy=0;entryX=0.5;entryY=1;entryDx=0;entryDy=0;" parent="1" source="k3ovCwQThVza27bVeW9s-52" target="k3ovCwQThVza27bVeW9s-44" edge="1">
          <mxGeometry relative="1" as="geometry" />
        </mxCell>
        <mxCell id="k3ovCwQThVza27bVeW9s-110" value="7" style="edgeLabel;html=1;align=center;verticalAlign=middle;resizable=0;points=[];" parent="k3ovCwQThVza27bVeW9s-88" vertex="1" connectable="0">
          <mxGeometry x="0.2667" relative="1" as="geometry">
            <mxPoint as="offset" />
          </mxGeometry>
        </mxCell>
        <mxCell id="k3ovCwQThVza27bVeW9s-52" value="Third Party Portal" style="rounded=1;whiteSpace=wrap;html=1;fillColor=#d5e8d4;strokeColor=#82b366;" parent="1" vertex="1">
          <mxGeometry x="320" y="598" width="120" height="70" as="geometry" />
        </mxCell>
        <mxCell id="k3ovCwQThVza27bVeW9s-90" style="edgeStyle=orthogonalEdgeStyle;rounded=0;orthogonalLoop=1;jettySize=auto;html=1;" parent="1" source="k3ovCwQThVza27bVeW9s-54" edge="1">
          <mxGeometry relative="1" as="geometry">
            <mxPoint x="700" y="540" as="targetPoint" />
          </mxGeometry>
        </mxCell>
        <mxCell id="k3ovCwQThVza27bVeW9s-111" value="8" style="edgeLabel;html=1;align=center;verticalAlign=middle;resizable=0;points=[];" parent="k3ovCwQThVza27bVeW9s-90" vertex="1" connectable="0">
          <mxGeometry x="0.0936" y="-1" relative="1" as="geometry">
            <mxPoint as="offset" />
          </mxGeometry>
        </mxCell>
        <mxCell id="k3ovCwQThVza27bVeW9s-54" value="Admin Portal" style="rounded=1;whiteSpace=wrap;html=1;fillColor=#d5e8d4;strokeColor=#82b366;" parent="1" vertex="1">
          <mxGeometry x="640" y="598" width="120" height="70" as="geometry" />
        </mxCell>
        <mxCell id="k3ovCwQThVza27bVeW9s-66" value="On Prem" style="text;html=1;align=center;verticalAlign=middle;resizable=0;points=[];autosize=1;strokeColor=none;fillColor=none;" parent="1" vertex="1">
          <mxGeometry x="620" y="568" width="70" height="30" as="geometry" />
        </mxCell>
        <mxCell id="k3ovCwQThVza27bVeW9s-67" value="On Prem" style="text;html=1;align=center;verticalAlign=middle;resizable=0;points=[];autosize=1;strokeColor=none;fillColor=none;" parent="1" vertex="1">
          <mxGeometry y="568" width="70" height="30" as="geometry" />
        </mxCell>
        <mxCell id="k3ovCwQThVza27bVeW9s-68" value="On Prem/&lt;div&gt;Azure AD&lt;/div&gt;" style="text;html=1;align=center;verticalAlign=middle;resizable=0;points=[];autosize=1;strokeColor=none;fillColor=none;" parent="1" vertex="1">
          <mxGeometry x="215" y="433" width="70" height="40" as="geometry" />
        </mxCell>
        <mxCell id="k3ovCwQThVza27bVeW9s-69" value="On Prem" style="text;html=1;align=center;verticalAlign=middle;resizable=0;points=[];autosize=1;strokeColor=none;fillColor=none;" parent="1" vertex="1">
          <mxGeometry y="170" width="70" height="30" as="geometry" />
        </mxCell>
        <mxCell id="k3ovCwQThVza27bVeW9s-70" value="On Prem" style="text;html=1;align=center;verticalAlign=middle;resizable=0;points=[];autosize=1;strokeColor=none;fillColor=none;" parent="1" vertex="1">
          <mxGeometry x="310" y="568" width="70" height="30" as="geometry" />
        </mxCell>
        <mxCell id="k3ovCwQThVza27bVeW9s-71" value="9- All calls to the platforms are authenticated" style="text;html=1;align=center;verticalAlign=middle;resizable=0;points=[];autosize=1;strokeColor=none;fillColor=none;" parent="1" vertex="1">
          <mxGeometry x="-15" y="1100" width="250" height="30" as="geometry" />
        </mxCell>
        <mxCell id="k3ovCwQThVza27bVeW9s-82" value="User Api" style="rounded=1;whiteSpace=wrap;html=1;fillColor=#d5e8d4;strokeColor=#82b366;" parent="1" vertex="1">
          <mxGeometry y="350" width="760" height="70" as="geometry" />
        </mxCell>
        <mxCell id="k3ovCwQThVza27bVeW9s-87" style="edgeStyle=orthogonalEdgeStyle;rounded=0;orthogonalLoop=1;jettySize=auto;html=1;entryX=0.543;entryY=1;entryDx=0;entryDy=0;entryPerimeter=0;" parent="1" source="k3ovCwQThVza27bVeW9s-82" target="k3ovCwQThVza27bVeW9s-24" edge="1">
          <mxGeometry relative="1" as="geometry" />
        </mxCell>
        <mxCell id="k3ovCwQThVza27bVeW9s-117" value="10" style="edgeLabel;html=1;align=center;verticalAlign=middle;resizable=0;points=[];" parent="k3ovCwQThVza27bVeW9s-87" vertex="1" connectable="0">
          <mxGeometry x="-0.0585" y="-2" relative="1" as="geometry">
            <mxPoint as="offset" />
          </mxGeometry>
        </mxCell>
        <mxCell id="k3ovCwQThVza27bVeW9s-101" style="edgeStyle=orthogonalEdgeStyle;rounded=0;orthogonalLoop=1;jettySize=auto;html=1;" parent="1" source="k3ovCwQThVza27bVeW9s-94" target="k3ovCwQThVza27bVeW9s-50" edge="1">
          <mxGeometry relative="1" as="geometry" />
        </mxCell>
        <mxCell id="k3ovCwQThVza27bVeW9s-94" value="Student" style="image;sketch=0;aspect=fixed;html=1;points=[];align=center;fontSize=12;image=img/lib/mscae/Person.svg;" parent="1" vertex="1">
          <mxGeometry x="46.5" y="700" width="37" height="50" as="geometry" />
        </mxCell>
        <mxCell id="k3ovCwQThVza27bVeW9s-104" style="edgeStyle=orthogonalEdgeStyle;rounded=0;orthogonalLoop=1;jettySize=auto;html=1;" parent="1" source="k3ovCwQThVza27bVeW9s-95" edge="1">
          <mxGeometry relative="1" as="geometry">
            <mxPoint x="378.5" y="670" as="targetPoint" />
          </mxGeometry>
        </mxCell>
        <mxCell id="k3ovCwQThVza27bVeW9s-95" value="Company Rep" style="image;sketch=0;aspect=fixed;html=1;points=[];align=center;fontSize=12;image=img/lib/mscae/Person.svg;" parent="1" vertex="1">
          <mxGeometry x="360" y="710" width="37" height="50" as="geometry" />
        </mxCell>
        <mxCell id="k3ovCwQThVza27bVeW9s-99" style="edgeStyle=orthogonalEdgeStyle;rounded=0;orthogonalLoop=1;jettySize=auto;html=1;" parent="1" source="k3ovCwQThVza27bVeW9s-96" edge="1">
          <mxGeometry relative="1" as="geometry">
            <mxPoint x="700" y="670" as="targetPoint" />
          </mxGeometry>
        </mxCell>
        <mxCell id="k3ovCwQThVza27bVeW9s-96" value="&lt;span style=&quot;background-color: rgb(251, 251, 251);&quot;&gt;Graduations Team&lt;/span&gt;" style="image;sketch=0;aspect=fixed;html=1;points=[];align=center;fontSize=12;image=img/lib/mscae/Person.svg;" parent="1" vertex="1">
          <mxGeometry x="681.5" y="710" width="37" height="50" as="geometry" />
        </mxCell>
        <mxCell id="k3ovCwQThVza27bVeW9s-112" value="6- Students Register\Authenticate on prem" style="text;html=1;align=center;verticalAlign=middle;resizable=0;points=[];autosize=1;strokeColor=none;fillColor=none;" parent="1" vertex="1">
          <mxGeometry x="-15" y="1010" width="240" height="30" as="geometry" />
        </mxCell>
        <mxCell id="k3ovCwQThVza27bVeW9s-113" value="7- Third parties Register\Authenticate on prem" style="text;html=1;align=center;verticalAlign=middle;resizable=0;points=[];autosize=1;strokeColor=none;fillColor=none;" parent="1" vertex="1">
          <mxGeometry x="-15" y="1040" width="260" height="30" as="geometry" />
        </mxCell>
        <mxCell id="k3ovCwQThVza27bVeW9s-114" value="8- Graduations team will login via AD" style="text;html=1;align=center;verticalAlign=middle;resizable=0;points=[];autosize=1;strokeColor=none;fillColor=none;" parent="1" vertex="1">
          <mxGeometry x="-15" y="1070" width="210" height="30" as="geometry" />
        </mxCell>
        <mxCell id="k3ovCwQThVza27bVeW9s-116" value="10. All front-end calls to the blockchain to download a certificate, verify a certificate e.t.c come in via the User Api. User Api will have a catalogue of&amp;nbsp;&lt;div&gt;available services&amp;nbsp;&lt;div&gt;&amp;nbsp;&lt;/div&gt;&lt;/div&gt;" style="text;html=1;align=center;verticalAlign=middle;resizable=0;points=[];autosize=1;strokeColor=none;fillColor=none;" parent="1" vertex="1">
          <mxGeometry x="-20" y="1120" width="780" height="60" as="geometry" />
        </mxCell>
      </root>
    </mxGraphModel>
  </diagram>
  <diagram id="VjHaDePICvl3pz1AJ-OH" name="Page-2">
    <mxGraphModel dx="1970" dy="494" grid="1" gridSize="10" guides="1" tooltips="1" connect="1" arrows="1" fold="1" page="1" pageScale="1" pageWidth="850" pageHeight="1100" math="0" shadow="0">
      <root>
        <mxCell id="0" />
        <mxCell id="1" parent="0" />
        <mxCell id="LoiRMNBMSBGPzl1fq34i-1" value="Plastic Queue" style="rounded=0;whiteSpace=wrap;html=1;" vertex="1" parent="1">
          <mxGeometry x="200" y="240" width="120" height="60" as="geometry" />
        </mxCell>
        <mxCell id="LoiRMNBMSBGPzl1fq34i-2" value="Metal&amp;nbsp;&lt;div&gt;Printer Queue&lt;/div&gt;" style="rounded=0;whiteSpace=wrap;html=1;" vertex="1" parent="1">
          <mxGeometry x="200" y="100" width="120" height="60" as="geometry" />
        </mxCell>
        <mxCell id="LoiRMNBMSBGPzl1fq34i-3" value="Metal&amp;nbsp;&lt;div&gt;Printer&amp;nbsp;&lt;/div&gt;" style="rounded=0;whiteSpace=wrap;html=1;" vertex="1" parent="1">
          <mxGeometry x="-90" y="100" width="120" height="60" as="geometry" />
        </mxCell>
        <mxCell id="LoiRMNBMSBGPzl1fq34i-4" value="Plastic&amp;nbsp;" style="rounded=0;whiteSpace=wrap;html=1;" vertex="1" parent="1">
          <mxGeometry x="-90" y="240" width="120" height="60" as="geometry" />
        </mxCell>
        <mxCell id="LoiRMNBMSBGPzl1fq34i-5" value="Resin&lt;div&gt;&lt;br&gt;&lt;/div&gt;" style="rounded=0;whiteSpace=wrap;html=1;" vertex="1" parent="1">
          <mxGeometry x="-90" y="360" width="120" height="60" as="geometry" />
        </mxCell>
        <mxCell id="LoiRMNBMSBGPzl1fq34i-6" value="Resin Queue" style="rounded=0;whiteSpace=wrap;html=1;" vertex="1" parent="1">
          <mxGeometry x="200" y="360" width="120" height="60" as="geometry" />
        </mxCell>
        <mxCell id="LoiRMNBMSBGPzl1fq34i-7" value="Queue" style="rounded=0;whiteSpace=wrap;html=1;" vertex="1" parent="1">
          <mxGeometry x="200" y="10" width="120" height="60" as="geometry" />
        </mxCell>
        <mxCell id="LoiRMNBMSBGPzl1fq34i-8" value="Printer" style="rounded=0;whiteSpace=wrap;html=1;" vertex="1" parent="1">
          <mxGeometry x="-90" width="120" height="60" as="geometry" />
        </mxCell>
        <mxCell id="LoiRMNBMSBGPzl1fq34i-9" value="orders&amp;nbsp;&lt;div&gt;&lt;br&gt;&lt;/div&gt;" style="ellipse;whiteSpace=wrap;html=1;" vertex="1" parent="1">
          <mxGeometry x="510" y="140" width="120" height="80" as="geometry" />
        </mxCell>
        <mxCell id="LoiRMNBMSBGPzl1fq34i-10" value="" style="endArrow=none;html=1;rounded=0;" edge="1" parent="1">
          <mxGeometry width="50" height="50" relative="1" as="geometry">
            <mxPoint x="400" y="400" as="sourcePoint" />
            <mxPoint x="400" y="40" as="targetPoint" />
          </mxGeometry>
        </mxCell>
        <mxCell id="LoiRMNBMSBGPzl1fq34i-11" value="" style="endArrow=classic;html=1;rounded=0;entryX=1;entryY=0.5;entryDx=0;entryDy=0;" edge="1" parent="1" target="LoiRMNBMSBGPzl1fq34i-1">
          <mxGeometry width="50" height="50" relative="1" as="geometry">
            <mxPoint x="400" y="270" as="sourcePoint" />
            <mxPoint x="450" y="230" as="targetPoint" />
          </mxGeometry>
        </mxCell>
        <mxCell id="LoiRMNBMSBGPzl1fq34i-12" value="" style="endArrow=classic;html=1;rounded=0;entryX=1;entryY=0.5;entryDx=0;entryDy=0;" edge="1" parent="1">
          <mxGeometry width="50" height="50" relative="1" as="geometry">
            <mxPoint x="400" y="389.5" as="sourcePoint" />
            <mxPoint x="320" y="389.5" as="targetPoint" />
          </mxGeometry>
        </mxCell>
        <mxCell id="LoiRMNBMSBGPzl1fq34i-13" value="" style="endArrow=classic;html=1;rounded=0;entryX=1;entryY=0.5;entryDx=0;entryDy=0;" edge="1" parent="1">
          <mxGeometry width="50" height="50" relative="1" as="geometry">
            <mxPoint x="400" y="129.5" as="sourcePoint" />
            <mxPoint x="320" y="129.5" as="targetPoint" />
          </mxGeometry>
        </mxCell>
        <mxCell id="LoiRMNBMSBGPzl1fq34i-14" value="" style="endArrow=classic;html=1;rounded=0;entryX=1;entryY=0.5;entryDx=0;entryDy=0;" edge="1" parent="1">
          <mxGeometry width="50" height="50" relative="1" as="geometry">
            <mxPoint x="400" y="39.5" as="sourcePoint" />
            <mxPoint x="320" y="39.5" as="targetPoint" />
          </mxGeometry>
        </mxCell>
        <mxCell id="LoiRMNBMSBGPzl1fq34i-15" value="" style="endArrow=classic;html=1;rounded=0;entryX=1;entryY=0.5;entryDx=0;entryDy=0;" edge="1" parent="1">
          <mxGeometry width="50" height="50" relative="1" as="geometry">
            <mxPoint x="505" y="179.5" as="sourcePoint" />
            <mxPoint x="425" y="179.5" as="targetPoint" />
          </mxGeometry>
        </mxCell>
        <mxCell id="LoiRMNBMSBGPzl1fq34i-16" value="" style="endArrow=classic;html=1;rounded=0;entryX=1;entryY=0.5;entryDx=0;entryDy=0;" edge="1" parent="1">
          <mxGeometry width="50" height="50" relative="1" as="geometry">
            <mxPoint x="150" y="29.5" as="sourcePoint" />
            <mxPoint x="70" y="29.5" as="targetPoint" />
          </mxGeometry>
        </mxCell>
        <mxCell id="LoiRMNBMSBGPzl1fq34i-17" value="" style="endArrow=classic;html=1;rounded=0;entryX=1;entryY=0.5;entryDx=0;entryDy=0;" edge="1" parent="1">
          <mxGeometry width="50" height="50" relative="1" as="geometry">
            <mxPoint x="140" y="140" as="sourcePoint" />
            <mxPoint x="60" y="140" as="targetPoint" />
          </mxGeometry>
        </mxCell>
        <mxCell id="LoiRMNBMSBGPzl1fq34i-18" value="" style="endArrow=classic;html=1;rounded=0;entryX=1;entryY=0.5;entryDx=0;entryDy=0;" edge="1" parent="1">
          <mxGeometry width="50" height="50" relative="1" as="geometry">
            <mxPoint x="160" y="280" as="sourcePoint" />
            <mxPoint x="80" y="280" as="targetPoint" />
          </mxGeometry>
        </mxCell>
        <mxCell id="LoiRMNBMSBGPzl1fq34i-19" value="" style="endArrow=classic;html=1;rounded=0;entryX=1;entryY=0.5;entryDx=0;entryDy=0;" edge="1" parent="1">
          <mxGeometry width="50" height="50" relative="1" as="geometry">
            <mxPoint x="160" y="389.5" as="sourcePoint" />
            <mxPoint x="80" y="389.5" as="targetPoint" />
          </mxGeometry>
        </mxCell>
        <mxCell id="LoiRMNBMSBGPzl1fq34i-20" value="Printing allocation Engine" style="shape=process;whiteSpace=wrap;html=1;backgroundOutline=1;" vertex="1" parent="1">
          <mxGeometry x="70" y="170" width="120" height="60" as="geometry" />
        </mxCell>
        <mxCell id="LoiRMNBMSBGPzl1fq34i-21" value="Maual Printing allocation&amp;nbsp;" style="shape=process;whiteSpace=wrap;html=1;backgroundOutline=1;" vertex="1" parent="1">
          <mxGeometry x="70" y="300" width="120" height="60" as="geometry" />
        </mxCell>
        <mxCell id="LoiRMNBMSBGPzl1fq34i-22" value="3d printing metal" style="rounded=0;whiteSpace=wrap;html=1;" vertex="1" parent="1">
          <mxGeometry x="230" y="670" width="120" height="60" as="geometry" />
        </mxCell>
        <mxCell id="LoiRMNBMSBGPzl1fq34i-23" value="3d printing sla" style="rounded=0;whiteSpace=wrap;html=1;" vertex="1" parent="1">
          <mxGeometry x="230" y="570" width="120" height="60" as="geometry" />
        </mxCell>
        <mxCell id="LoiRMNBMSBGPzl1fq34i-24" value="Service Catalogue" style="text;html=1;align=center;verticalAlign=middle;resizable=0;points=[];autosize=1;strokeColor=none;fillColor=none;" vertex="1" parent="1">
          <mxGeometry x="220" y="458" width="120" height="30" as="geometry" />
        </mxCell>
        <mxCell id="LoiRMNBMSBGPzl1fq34i-25" value="Printer" style="rounded=1;whiteSpace=wrap;html=1;" vertex="1" parent="1">
          <mxGeometry x="-90" y="580" width="120" height="60" as="geometry" />
        </mxCell>
        <mxCell id="LoiRMNBMSBGPzl1fq34i-26" value="Printer" style="rounded=1;whiteSpace=wrap;html=1;" vertex="1" parent="1">
          <mxGeometry x="-90" y="680" width="120" height="60" as="geometry" />
        </mxCell>
        <mxCell id="LoiRMNBMSBGPzl1fq34i-27" value="Printer" style="rounded=1;whiteSpace=wrap;html=1;" vertex="1" parent="1">
          <mxGeometry x="-100" y="860" width="120" height="60" as="geometry" />
        </mxCell>
        <mxCell id="LoiRMNBMSBGPzl1fq34i-28" value="3d printing metal" style="rounded=0;whiteSpace=wrap;html=1;" vertex="1" parent="1">
          <mxGeometry x="220" y="860" width="120" height="60" as="geometry" />
        </mxCell>
      </root>
    </mxGraphModel>
  </diagram>
</mxfile>
